<?xml version="1.0" encoding="UTF-8" standalone="no"?>
<!-- Created with Inkscape (http://www.inkscape.org/) -->

<svg
   width="700"
   height="200"
   viewBox="0 0 185.20833 52.916665"
   version="1.1"
   id="svg1"
   inkscape:export-filename="logoimage.png"
   inkscape:export-xdpi="63.085712"
   inkscape:export-ydpi="63.085712"
   inkscape:version="1.4 (e7c3feb1, 2024-10-09)"
   sodipodi:docname="game_logo.svg"
   xmlns:inkscape="http://www.inkscape.org/namespaces/inkscape"
   xmlns:sodipodi="http://sodipodi.sourceforge.net/DTD/sodipodi-0.dtd"
   xmlns:xlink="http://www.w3.org/1999/xlink"
   xmlns="http://www.w3.org/2000/svg"
   xmlns:svg="http://www.w3.org/2000/svg">
  <sodipodi:namedview
     id="namedview1"
     pagecolor="#ffffff"
     bordercolor="#666666"
     borderopacity="1.0"
     inkscape:showpageshadow="2"
     inkscape:pageopacity="0.0"
     inkscape:pagecheckerboard="0"
     inkscape:deskcolor="#d1d1d1"
     inkscape:document-units="mm"
     inkscape:zoom="1.4823793"
     inkscape:cx="212.15892"
     inkscape:cy="134.91823"
     inkscape:window-width="1104"
     inkscape:window-height="653"
     inkscape:window-x="0"
     inkscape:window-y="25"
     inkscape:window-maximized="0"
     inkscape:current-layer="layer1" />
  <defs
     id="defs1">
    <linearGradient
       id="linearGradient14"
       inkscape:label="2-2">
      <stop
         style="stop-color:#f3f3f3;stop-opacity:0.99999988;"
         offset="0"
         id="stop15" />
      <stop
         style="stop-color:#ffff80;stop-opacity:0.99999988;"
         offset="0.16"
         id="stop11" />
      <stop
         style="stop-color:#ffffff;stop-opacity:1;"
         offset="0.31999999"
         id="stop12" />
      <stop
         style="stop-color:#ffffff;stop-opacity:0.99999988;"
         offset="0.5"
         id="stop14" />
      <stop
         style="stop-color:#ffff80;stop-opacity:0.99999988;"
         offset="0.83999997"
         id="stop13" />
      <stop
         style="stop-color:#f3f3f4;stop-opacity:0.99999988;"
         offset="1"
         id="stop16" />
    </linearGradient>
    <linearGradient
       id="linearGradient2">
      <stop
         style="stop-color:#000000;stop-opacity:1;"
         offset="0"
         id="stop4" />
      <stop
         style="stop-color:#000000;stop-opacity:0;"
         offset="1"
         id="stop5" />
    </linearGradient>
    <linearGradient
       id="linearGradient2-1"
       inkscape:label="2-2">
      <stop
         style="stop-color:#ffffff;stop-opacity:1;"
         offset="0"
         id="stop2" />
      <stop
         style="stop-color:#ffff03;stop-opacity:0.49803922;"
         offset="0.27083334"
         id="stop6" />
      <stop
         style="stop-color:#fffff8;stop-opacity:0.32941177;"
         offset="0.49702382"
         id="stop8" />
      <stop
         style="stop-color:#ffffc9;stop-opacity:0.17647059;"
         offset="0.74404764"
         id="stop7" />
      <stop
         style="stop-color:#ffffff;stop-opacity:1;"
         offset="1"
         id="stop3" />
    </linearGradient>
    <linearGradient
       inkscape:collect="always"
       xlink:href="#linearGradient14"
       id="linearGradient3"
       x1="26.472984"
       y1="45.679108"
       x2="26.472984"
       y2="85.330231"
       gradientUnits="userSpaceOnUse"
       spreadMethod="pad"
       gradientTransform="translate(63.349495,-28.303475)" />
    <filter
       style="color-interpolation-filters:sRGB;"
       inkscape:label="Drop Shadow"
       id="filter21"
       x="-0.0014406474"
       y="-0.0066728495"
       width="1.0083263"
       height="1.0385659">
      <feFlood
         result="flood"
         in="SourceGraphic"
         flood-opacity="0.498039"
         flood-color="rgb(0,0,0)"
         id="feFlood20" />
      <feGaussianBlur
         result="blur"
         in="SourceGraphic"
         stdDeviation="0.000000"
         id="feGaussianBlur20" />
      <feOffset
         result="offset"
         in="blur"
         dx="1.000000"
         dy="1.000000"
         id="feOffset20" />
      <feComposite
         result="comp1"
         operator="in"
         in="flood"
         in2="offset"
         id="feComposite20" />
      <feComposite
         result="comp2"
         operator="over"
         in="SourceGraphic"
         in2="comp1"
         id="feComposite21" />
    </filter>
  </defs>
  <g
     inkscape:label="Layer 1"
     inkscape:groupmode="layer"
     id="layer1">
    <g
       id="g26"
       transform="translate(0.16815994,0.08044315)">
      <path
         d="M 2.5040784,46.778684 Q 2.2560316,46.23298 2.0079847,45.736887 1.7599378,45.240793 1.511891,44.843918 0.91657847,43.653293 0.4700941,42.710715 0.02360973,41.768137 -0.37326526,40.527902 q 0.14882812,-0.843359 0.49609374,-2.827734 0.396875,-1.984375 0.89296872,-4.316016 0.4960938,-2.381249 1.0417969,-4.812109 0.5953125,-2.430859 1.190625,-4.167187 0.5457031,-1.537891 1.1906249,-3.274219 0.6945313,-1.736328 1.4882813,-3.175 0.8433593,-1.488281 1.7859374,-2.530078 0.9425782,-1.041797 2.0339844,-1.240234 0.2976559,0.396875 0.6449219,0.644922 0.347266,0.198437 0.644922,0.297656 0.843359,1.190625 1.637109,2.033984 0.79375,0.79375 1.885156,1.5875 -0.297656,1.488281 -0.892968,3.323828 -0.545703,1.785938 -1.190625,3.621484 -0.595313,1.835547 -1.190625,3.571875 -0.595313,1.686719 -0.942578,2.926953 -0.297657,0.992188 -0.5953129,2.282032 -0.2480469,1.091406 -0.5457031,2.629297 -0.2480469,1.53789 -0.4960938,3.373437 0.6945313,-0.198438 1.5378908,-0.79375 0.892969,-0.595312 1.637109,-1.240234 0.892969,-0.744141 1.736328,-1.5875 1.141016,-1.141016 1.934766,-2.083594 0.79375,-0.942578 1.438672,-1.934766 0.694531,-1.041797 1.389062,-2.232421 0.744141,-1.240235 1.736328,-2.926954 0.892969,-1.438671 1.835547,-3.075781 0.992188,-1.637109 1.984375,-3.12539 0.992188,-1.488282 1.934766,-2.728516 0.942578,-1.289844 1.736328,-1.984375 0.545703,0.545703 1.240234,1.141016 0.744141,0.595312 1.5875,0.843359 0.347266,0.545703 0.644922,0.992188 0.347266,0.396875 0.644922,0.79375 0.396875,0.545703 0.694531,0.992187 0.347266,0.446484 0.595313,0.992188 -0.04961,0.396875 -0.198438,1.041796 -0.09922,0.644922 -0.248047,1.438672 -0.148828,0.744141 -0.347265,1.537891 -0.148828,0.79375 -0.297657,1.53789 -0.496093,2.232422 -0.74414,3.373438 -0.248047,1.141015 -0.347266,1.785937 -0.09922,0.644922 -0.148828,1.091407 0,0.446484 0,1.240234 0,0.595312 0.09922,1.190625 0.09922,0.545703 0.198437,1.141016 0.148828,0.545703 0.496094,1.041796 l 2.38125,-1.835546 q 0.992187,-0.744141 1.885156,-2.083594 0.942578,-1.389063 1.785938,-3.125391 0.892968,-1.785937 1.736328,-3.819922 0.843359,-2.083593 1.686718,-4.266406 0.595313,-1.5875 1.190625,-3.12539 0.644922,-1.5875 1.289844,-2.976563 0.644922,-1.438672 1.240235,-2.579687 0.644921,-1.190625 1.240234,-1.984375 1.339453,0.843359 2.282031,1.686719 0.992188,0.843359 1.686719,1.885156 0.74414,0.992187 1.141015,2.33164 0.446485,1.289844 0.644922,3.075782 -1.091406,2.083593 -2.033984,4.266406 -0.942578,2.182812 -1.885156,4.415234 -1.190625,2.877344 -2.480469,5.754687 -1.240234,2.827735 -2.778125,5.407422 -1.537891,2.579688 -3.472656,4.7625 -1.885156,2.133203 -4.365625,3.621484 -0.694531,-0.148828 -1.190625,-0.148828 -0.545703,0 -0.942578,0.148828 -0.347266,0.148829 -0.644922,0.396875 -2.033984,-0.942578 -3.274219,-2.778124 -1.240234,-1.885157 -2.430859,-4.167188 -0.148828,-0.347266 -0.347266,-0.644922 -0.148828,-0.347265 -0.347265,-0.694531 l -0.84336,-1.537891 -0.496093,-0.942578 -0.694532,0.644922 -1.041796,0.942578 -0.595313,0.595313 q -1.537891,1.438672 -3.125391,2.827734 -1.5875,1.339453 -3.323828,2.480469 -1.736328,1.091406 -3.720703,1.785937 Q 9.6974377,49.953683 7.4650159,50.003293 7.0681409,49.804855 6.7208753,49.656027 6.423219,49.507199 6.1255628,49.358371 4.9845472,48.812668 4.2404065,48.316574 3.4962659,47.82048 2.5040784,46.778684 Z m 58.5886706,3.720703 q -2.182813,0.297656 -3.96875,-0.198438 -1.785938,-0.496094 -3.22461,-1.537891 -1.389062,-1.041796 -2.430859,-2.480468 -0.992187,-1.438672 -1.637109,-3.075781 -0.446485,-3.373438 0.248047,-6.101953 0.694531,-2.778125 2.033984,-5.109766 1.339453,-2.331641 3.026172,-4.365625 1.736328,-2.033984 3.323828,-3.919141 0.347265,0.148829 0.545703,0 0.248047,-0.148828 0.396875,-0.396874 0.198437,-0.248047 0.396875,-0.496094 0.248047,-0.248047 0.545703,-0.347266 0.198438,-0.446484 0.496094,-0.74414 0.347265,-0.297657 0.694531,-0.545704 0.396875,-0.297656 0.694531,-0.595312 0.347266,-0.297656 0.595313,-0.744141 0.496094,-0.09922 0.843359,-0.347265 0.396875,-0.248047 0.694531,-0.545703 0.347266,-0.297657 0.694532,-0.545704 0.347265,-0.248046 0.843359,-0.396875 v -0.644921 q 1.091406,-0.496094 1.5875,-1.091407 0.496094,-0.595312 1.190625,-1.53789 0.545703,-0.04961 0.843359,-0.04961 0.347266,0 1.041797,-0.09922 0.446485,-0.84336 0.84336,-1.240235 0.396875,-0.396875 1.141015,-0.892968 0.744141,0.396875 1.5875,0.496093 0.843359,0.04961 1.537891,0.744141 0.04961,0.595312 0.347265,0.942578 0.297657,0.297656 0.644922,0.595312 0.347266,0.248047 0.694531,0.545704 0.347266,0.297656 0.446485,0.843359 0.248047,0 0.297656,-0.09922 0.09922,-0.09922 0.347266,-0.04961 0.09922,0.396875 0.198437,0.644922 0.09922,0.248047 0.198438,0.446484 0.148828,0.198438 0.248047,0.446484 0.148828,0.248047 0.248046,0.595313 -0.248046,0.595312 -0.446484,1.289844 -0.198437,0.644922 -0.79375,0.892968 0,0.396875 0.297656,0.446485 0.297657,0 0.347266,0.347265 0.04961,0.446485 -0.148828,0.744141 1.389062,2.331641 2.530078,4.911328 1.141015,2.530078 2.579687,4.861719 -0.09922,0.694531 0.04961,1.389062 0.198437,0.644922 0.446484,1.289844 0.297656,0.644922 0.545703,1.289844 0.248047,0.644922 0.347266,1.289843 0.09922,0.84336 0,1.835547 -0.09922,0.942578 -0.396875,1.835547 -0.297656,0.892969 -0.79375,1.686719 -0.496094,0.74414 -1.141016,1.141015 -0.79375,0.992188 -1.984375,1.63711 -1.190625,0.595312 -2.182812,1.438672 -0.694531,0.396875 -1.488281,0.595312 -0.79375,0.148828 -1.63711,0.347266 -0.644922,0.396875 -1.53789,0.79375 -0.892969,0.347265 -1.835547,0.644922 -0.942578,0.297656 -1.885156,0.496093 -0.942579,0.148828 -1.686719,0.04961 -1.785938,0.644922 -3.472656,0.892968 -1.686719,0.248047 -3.96875,-0.248046 z m 0.644922,-18.057813 q -0.496094,1.141016 -1.190625,2.083594 -0.644922,0.892969 -1.289844,1.835547 -0.644922,0.942578 -1.141016,2.033984 -0.446484,1.041797 -0.496094,2.480469 0.992188,0.843359 2.331641,1.041797 1.389063,0.148828 2.827734,0.04961 1.438672,-0.148828 2.877344,-0.396875 1.438672,-0.248047 2.579688,-0.248047 0,-0.446484 0.396875,-0.446484 2.083593,-0.198438 3.869531,-1.141016 1.785937,-0.992187 3.720703,-1.984375 0.248047,-0.595312 0.644922,-1.041796 0.396875,-0.446485 0.446484,-1.289844 -0.248047,-0.446485 -0.347266,-0.744141 -0.04961,-0.297656 -0.04961,-0.892969 -1.289844,-1.785937 -2.232422,-3.869531 -0.942578,-2.133203 -2.182812,-4.018359 -0.09922,0.248047 -0.396875,0.496094 -0.297656,0.248047 -0.644922,-0.09922 -0.148828,0.496094 -0.446484,0.694531 -0.297657,0.148828 -0.694532,0.148828 -0.347265,0 -0.74414,-0.148828 -0.347266,-0.148828 -0.644922,-0.396875 -1.736328,1.389063 -3.472656,2.678906 -1.686719,1.289844 -3.075782,3.026172 -0.248046,0.148828 -0.297656,0.09922 -0.04961,-0.04961 -0.347265,0.04961 z m 26.590626,13.592969 q -0.248047,0.04961 -0.446484,-0.347266 -0.198438,-0.446484 -0.446485,-0.843359 h 0.545704 q -0.347266,-1.091406 -0.198438,-1.984375 0.198438,-0.942578 0.446484,-1.785938 0.248047,-0.892968 0.396875,-1.686718 0.198438,-0.84336 -0.148828,-1.736328 0.248047,0.148828 0.347266,-0.09922 0.148828,-0.297656 0.198437,-0.694531 0.09922,-0.446485 0.04961,-0.892969 0,-0.496094 -0.04961,-0.79375 0.644922,-1.537891 0.992188,-3.175 0.396875,-1.637109 0.694531,-3.224609 0.297656,-1.63711 0.644922,-3.125391 0.396875,-1.537891 0.992188,-2.877344 0.694531,-0.09922 1.438671,0.198438 0.79375,0.248047 1.041797,0.644922 1.537891,-1.190625 2.728516,-2.877344 1.190625,-1.686719 2.38125,-3.274219 1.240239,-1.637109 2.778129,-2.877343 1.53789,-1.240235 3.81992,-1.488282 1.19062,0.84336 2.6789,1.835547 1.48829,0.942578 2.43086,2.38125 0.39688,0.248047 0.74414,0.545703 0.39688,0.248047 0.79375,0.496094 v 0.744141 q 0.69453,0.644922 1.14102,1.53789 0.49609,0.84336 0.84336,1.835547 0.39687,0.942578 0.74414,1.934766 0.34726,0.992187 0.79375,1.835547 -0.0992,0.297656 -0.0992,0.545703 0.0496,0.198437 0.0992,0.446484 0.0992,0.198438 0.14883,0.496094 0.0496,0.248047 0.0496,0.644922 -0.19844,2.629297 -1.73633,4.266406 -1.48828,1.5875 -3.67109,2.629297 -2.13321,0.992187 -4.56407,1.736328 -2.43086,0.694531 -4.41523,1.53789 0,0.198438 0.19844,0.198438 0.24804,0 0.14882,0.297656 1.48829,0.892969 2.28204,1.438672 0.84335,0.545703 1.53789,0.942578 0.74414,0.347266 1.5875,0.595313 0.89296,0.248046 2.43086,0.595312 1.53789,0.347266 2.38124,0.595313 0.89297,0.198437 1.5875,0.347265 0.69454,0.09922 1.48829,0.198438 0.79375,0.09922 2.1332,0.248047 0.5457,0.545703 0.89297,1.289843 0.34726,0.744141 0.49609,1.488282 0.14883,0.74414 0.0496,1.438671 -0.0496,0.644922 -0.39687,1.041797 0.0496,0.198438 0.24804,0.198438 0.24805,-0.04961 0.4961,0 -0.34727,0.248047 -0.59532,0.595312 -0.24804,0.347266 -0.49609,0.694531 -0.24805,0.347266 -0.59531,0.644922 -0.29766,0.297657 -0.79375,0.347266 -1.78594,0.694531 -4.56406,0.04961 -2.77813,-0.644922 -7.09414,-2.282031 -2.13321,-0.79375 -3.47266,-1.438672 -1.33945,-0.644922 -2.33164,-1.240234 -0.992189,-0.644922 -1.835549,-1.339453 -0.843359,-0.744141 -1.934765,-1.736328 -0.148828,0.04961 -0.198438,0.198437 0,0.148828 -0.148828,0.198438 -0.248047,1.984375 -0.79375,3.224609 -0.496093,1.240234 -1.488281,2.530078 -0.79375,-0.148828 -1.091406,0.148828 -0.248047,0.297656 -0.644922,0.545703 -0.496094,0.09922 -0.744141,-0.04961 -0.248047,-0.09922 -0.446484,-0.248047 -0.198438,-0.148828 -0.446484,-0.297656 -0.248047,-0.148828 -0.79375,-0.09922 -0.148829,-0.446484 -0.297657,-0.843359 -0.148828,-0.446485 -0.79375,-0.396875 0.148828,-0.446485 0.09922,-0.744141 -0.04961,-0.347265 -0.148828,-0.595312 -0.09922,-0.297657 -0.198438,-0.595313 -0.04961,-0.297656 0.09922,-0.694531 z M 104.89783,23.363059 q -0.64492,0.942578 -1.43867,1.736328 -0.79375,0.744141 -1.5875,1.5875 -0.74414,0.79375 -1.33946,1.785937 -0.595309,0.942579 -0.843356,2.282032 2.083596,-0.248047 4.365626,-1.141016 2.28203,-0.942578 4.31601,-1.785937 -0.24804,-1.835547 -1.28984,-2.926954 -1.0418,-1.141015 -2.18281,-1.53789 z m 19.74452,27.483593 q -1.43867,-0.347265 -2.23242,-1.141015 -0.74414,-0.84336 -1.14101,-1.934766 -0.34727,-1.141016 -0.4961,-2.480469 -0.0992,-1.339453 -0.24804,-2.778125 0.19843,-0.644922 0.49609,-1.091406 0.34726,-0.446484 0.29766,-1.240234 0.5457,-1.5875 0.99218,-3.075781 0.44649,-1.488282 0.59532,-3.075782 0.29765,-0.446484 0.59531,-0.595312 0.39687,-2.827734 0.0992,-5.804297 -0.29766,-2.976562 -0.99219,-5.50664 0.0496,-0.545704 0.14883,-0.79375 0.0992,-0.297657 0,-0.496094 -0.0992,-0.446485 0.29765,-0.446485 0.39688,0 0.79375,0 0,-0.892968 -0.34726,-1.736328 -0.29766,-0.892968 -0.59531,-2.033984 0.39687,-0.892969 0.5457,-1.736328 0.14883,-0.843359 0.5457,-1.537891 1.5875,0.496094 3.12539,1.141016 1.53789,0.644922 3.02617,1.289844 1.48829,0.595312 2.92696,1.190625 1.43867,0.545703 2.82773,0.892968 2.1332,1.537891 4.36563,3.075782 2.28203,1.488281 4.11757,3.323828 1.88516,1.785937 3.1254,4.117578 1.24023,2.33164 1.43867,5.50664 -0.0992,0.297656 -0.14883,0.496094 -0.0496,0.198437 -0.0992,0.396875 -0.0496,0.198437 -0.0496,0.446484 0,0.248047 0,0.694532 -1.78594,3.12539 -4.51445,5.258593 -2.72852,2.133203 -5.95313,3.770313 -3.22461,1.637109 -6.74687,3.026172 -3.47266,1.339453 -6.79649,2.877343 z m 4.86172,-28.128515 q -0.44648,0 -0.64492,0.198438 0.59531,2.232421 0.89297,4.216796 0.29766,1.984375 0.29766,3.96875 0.0496,1.984375 -0.19844,4.067969 -0.24805,2.083594 -0.69453,4.514453 0.64492,-0.04961 1.14101,-0.248047 0.4961,-0.198437 0.99219,-0.446484 0.5457,-0.248047 1.09141,-0.446485 0.59531,-0.198437 1.33945,-0.248046 0.19844,-0.396875 0.49609,-0.595313 0.34727,-0.248047 0.59532,-0.496094 1.24023,-0.496093 2.48046,-1.041797 1.24024,-0.545703 2.28204,-1.240234 1.04179,-0.694531 1.88515,-1.5875 0.84336,-0.892969 1.38906,-2.133203 -0.39687,-0.744141 -0.99218,-1.240234 -0.54571,-0.545703 -1.19063,-1.041797 -0.59531,-0.545703 -1.19062,-1.091406 -0.54571,-0.595313 -0.89297,-1.339454 -0.79375,-0.09922 -1.38906,-0.396875 -0.59532,-0.347265 -1.14102,-0.644921 -0.5457,-0.347266 -1.19063,-0.644922 -0.59531,-0.297657 -1.43867,-0.347266 -1.28984,-0.694531 -2.33164,-0.942578 -1.04179,-0.297656 -1.5875,-0.79375 z m 51.49454,-5.754687 q 0.29766,0.396875 0.59531,0.992187 0.29766,0.595313 0.0496,1.091406 0.89297,0.892969 1.38906,2.182813 0.54571,1.289844 -0.0992,2.827734 -1.14101,0.396875 -2.03398,0.644922 -0.84336,0.198437 -1.83555,0.496094 -1.88515,0.09922 -2.38125,0.148828 -0.44648,0.04961 -0.69453,0.09922 -0.24804,0.04961 -0.79375,0.198437 -0.49609,0.09922 -2.23242,0.347266 0,-0.198438 -0.0496,-0.248047 0,-0.04961 -0.0992,0 -0.0496,0.04961 -0.14883,0.09922 -0.0496,0.04961 -0.19843,0 -0.99219,0.347265 -1.98438,0.545703 -0.99219,0.148828 -1.98437,0.297656 -0.99219,0.148828 -1.98438,0.396875 -0.99219,0.198437 -2.03398,0.694531 0.0992,0.248047 0.29765,0.396875 0.19844,0.09922 0.39688,0.248047 0.24805,0.09922 0.44648,0.248047 0.19844,0.148828 0.29766,0.396875 1.38906,0.347266 2.28203,1.141016 0.94258,0.74414 1.68672,1.736328 0.74414,0.942578 1.43867,1.934765 0.69453,0.992188 1.63711,1.785938 0,0.297656 0.14883,0.446484 0.14883,0.148828 0.0496,0.545703 0.89297,1.141016 1.38906,2.728516 0.49609,1.5875 0.19844,3.671093 -0.64492,1.5875 -1.53789,2.728516 -0.89297,1.091406 -2.33164,2.282031 -1.14102,0.496094 -2.23242,0.79375 -1.09141,0.248047 -1.93477,0.79375 -0.39688,-0.248047 -0.74414,-0.198437 -0.29766,0 -0.5457,-0.09922 -1.14102,0.496094 -2.43086,0.694531 -1.28985,0.148828 -2.72852,-0.545703 -1.0418,0.04961 -2.1332,-0.04961 -1.0418,-0.148828 -1.93477,-0.496094 -0.89297,-0.347266 -1.53789,-0.942578 -0.59531,-0.644922 -0.79375,-1.5875 -1.14101,-0.942578 -1.48828,-2.331641 -0.34727,-1.438672 0.34727,-2.778125 0.29765,-0.09922 0.44648,-0.148828 0.19844,-0.09922 0.49609,-0.347265 2.6293,0.248046 5.35782,0.446484 2.77812,0.148828 5.90351,-0.446484 0.0992,-0.396875 0.34727,-0.545704 0.29765,-0.198437 0.64492,-0.347265 0.34727,-0.148828 0.64492,-0.297656 0.29766,-0.148828 0.44649,-0.446485 0,-0.297656 -0.14883,-0.396875 -0.14883,-0.148828 -0.29766,-0.248047 -0.14883,-0.148828 -0.29765,-0.297656 -0.0992,-0.148828 -0.0496,-0.496094 -0.64493,0 -1.53789,-0.446484 -0.84336,-0.446484 -1.33946,-0.992187 -2.18281,-0.396875 -4.36562,-1.488282 -2.13321,-1.091406 -4.16719,-2.033984 -0.34727,-0.595313 -0.79375,-1.091406 -0.39688,-0.545703 -0.79375,-1.091406 -0.39688,-0.595313 -0.69453,-1.190625 -0.24805,-0.595313 -0.29766,-1.289844 0.0496,-0.79375 0.0992,-1.488281 0.0496,-0.744141 0.0992,-1.438672 0.0496,-0.744141 0.14883,-1.488282 0.0992,-0.793749 0.29765,-1.686718 2.13321,-2.926953 5.30821,-4.911328 3.22461,-2.033985 6.59804,-3.323828 0.54571,0.545703 1.09141,1.190625 0.5457,0.595312 1.14102,1.141015 0.59531,0.545703 1.24023,0.942578 0.69453,0.396875 1.53789,0.446485 0.5457,-0.148828 0.84336,-0.198438 0.29766,-0.04961 0.5457,-0.04961 0.24805,0 0.64493,0 0.39687,0 1.14101,-0.09922 0.74414,-0.09922 1.43867,-0.09922 0.69453,0 1.28985,-0.04961 1.24023,-0.09922 1.78593,-0.198438 0.59532,-0.09922 0.79375,-0.148828 0.19844,-0.04961 0.19844,-0.04961 0,-0.04961 0.14883,0 0.19844,0 0.69453,0.09922 0.49609,0.09922 1.68672,0.248047 z"
         id="text26"
         style="font-size:50.8px;line-height:1.25;font-family:'Permanent Marker';-inkscape-font-specification:'Permanent Marker';font-variant-ligatures:none;text-align:center;text-anchor:middle;fill-opacity:0.5;stroke-width:0.529167"
         transform="rotate(-3.2450016)"
         aria-label="WORD5" />
      <path
         d="M 9.7961088,51.70551 Q 9.5480619,51.159807 9.300015,50.663713 9.0519682,50.167619 8.8039213,49.770744 8.2086088,48.580119 7.7621244,47.637541 7.3156401,46.694963 6.9187651,45.454729 q 0.1488281,-0.84336 0.4960937,-2.827734 0.396875,-1.984375 0.8929688,-4.316016 0.4960937,-2.38125 1.0417968,-4.812109 0.5953125,-2.43086 1.1906246,-4.167188 0.545704,-1.53789 1.190625,-3.274218 0.694532,-1.736329 1.488282,-3.175 0.843359,-1.488282 1.785937,-2.530079 0.942578,-1.041796 2.033984,-1.240234 0.297657,0.396875 0.644922,0.644922 0.347266,0.198437 0.644922,0.297656 0.84336,1.190625 1.63711,2.033985 0.793749,0.79375 1.885156,1.5875 -0.297657,1.488281 -0.892969,3.323828 -0.545703,1.785937 -1.190625,3.621484 -0.595312,1.835547 -1.190625,3.571875 -0.595312,1.686719 -0.942578,2.926953 -0.297656,0.992187 -0.595313,2.282031 -0.248046,1.091406 -0.545703,2.629297 -0.248047,1.537891 -0.496093,3.373437 0.694531,-0.198437 1.53789,-0.79375 0.892969,-0.595312 1.63711,-1.240234 0.892968,-0.74414 1.736328,-1.5875 1.141015,-1.141015 1.934765,-2.083594 0.79375,-0.942578 1.438672,-1.934765 0.694531,-1.041797 1.389063,-2.232422 0.74414,-1.240234 1.736328,-2.926953 0.892968,-1.438672 1.835546,-3.075781 0.992188,-1.63711 1.984375,-3.125391 0.992188,-1.488281 1.934766,-2.728515 0.942578,-1.289844 1.736328,-1.984375 0.545703,0.545703 1.240235,1.141015 0.74414,0.595313 1.587499,0.84336 0.347266,0.545703 0.644922,0.992187 0.347266,0.396875 0.644922,0.79375 0.396875,0.545703 0.694531,0.992188 0.347266,0.446484 0.595313,0.992187 -0.04961,0.396875 -0.198438,1.041797 -0.09922,0.644922 -0.248046,1.438672 -0.148829,0.74414 -0.347266,1.53789 -0.148828,0.79375 -0.297656,1.537891 -0.496094,2.232422 -0.744141,3.373437 -0.248047,1.141016 -0.347266,1.785938 -0.09922,0.644922 -0.148828,1.091406 0,0.446484 0,1.240234 0,0.595313 0.09922,1.190625 0.09922,0.545704 0.198438,1.141016 0.148828,0.545703 0.496093,1.041797 l 2.38125,-1.835547 q 0.992188,-0.744141 1.885157,-2.083594 0.942578,-1.389062 1.785937,-3.12539 0.892969,-1.785938 1.736328,-3.819922 0.843359,-2.083594 1.686719,-4.266406 0.595312,-1.5875 1.190625,-3.125391 0.644922,-1.5875 1.289844,-2.976562 0.644921,-1.438672 1.240234,-2.579688 0.644922,-1.190625 1.240234,-1.984375 1.339453,0.84336 2.282031,1.686719 0.992188,0.843359 1.686719,1.885156 0.744141,0.992188 1.141016,2.331641 0.446484,1.289844 0.644922,3.075781 -1.091407,2.083594 -2.033985,4.266406 -0.942578,2.182813 -1.885156,4.415234 -1.190625,2.877344 -2.480469,5.754688 -1.240234,2.827734 -2.778125,5.407422 -1.53789,2.579687 -3.472656,4.7625 -1.885156,2.133203 -4.365625,3.621484 -0.694531,-0.148828 -1.190625,-0.148828 -0.545703,0 -0.942578,0.148828 -0.347265,0.148828 -0.644922,0.396875 -2.033984,-0.942578 -3.274218,-2.778125 -1.240235,-1.885156 -2.43086,-4.167187 -0.148828,-0.347266 -0.347265,-0.644922 -0.148828,-0.347266 -0.347266,-0.694532 l -0.843359,-1.53789 -0.496094,-0.942578 -0.694531,0.644922 -1.041797,0.942578 -0.595313,0.595312 q -1.53789,1.438672 -3.12539,2.827735 -1.5875,1.339453 -3.323828,2.480468 -1.736328,1.091406 -3.720703,1.785938 -1.934766,0.694531 -4.167188,0.74414 -0.396875,-0.198437 -0.74414,-0.347265 -0.297657,-0.148828 -0.595313,-0.297657 -1.141016,-0.545703 -1.885156,-1.041796 -0.744141,-0.496094 -1.7363282,-1.537891 z m 58.5886702,3.720703 q -2.182812,0.297656 -3.96875,-0.198437 -1.785937,-0.496094 -3.224609,-1.537891 -1.389063,-1.041797 -2.43086,-2.480469 -0.992187,-1.438672 -1.637109,-3.075781 -0.446484,-3.373437 0.248047,-6.101953 0.694531,-2.778125 2.033984,-5.109766 1.339453,-2.33164 3.026172,-4.365624 1.736328,-2.033985 3.323828,-3.919141 0.347266,0.148828 0.545703,0 0.248047,-0.148828 0.396875,-0.396875 0.198438,-0.248047 0.396875,-0.496094 0.248047,-0.248047 0.545703,-0.347265 0.198438,-0.446485 0.496094,-0.744141 0.347266,-0.297656 0.694531,-0.545703 0.396875,-0.297656 0.694532,-0.595313 0.347265,-0.297656 0.595312,-0.74414 0.496094,-0.09922 0.843359,-0.347266 0.396875,-0.248047 0.694532,-0.545703 0.347265,-0.297656 0.694531,-0.545703 0.347266,-0.248047 0.843359,-0.396875 v -0.644922 q 1.091407,-0.496094 1.5875,-1.091406 0.496094,-0.595313 1.190625,-1.537891 0.545703,-0.04961 0.84336,-0.04961 0.347265,0 1.041796,-0.09922 0.446485,-0.843359 0.84336,-1.240234 0.396875,-0.396875 1.141015,-0.892969 0.744141,0.396875 1.5875,0.496094 0.84336,0.04961 1.537891,0.74414 0.04961,0.595313 0.347266,0.942578 0.297656,0.297657 0.644922,0.595313 0.347265,0.248047 0.694531,0.545703 0.347265,0.297656 0.446484,0.843359 0.248047,0 0.297656,-0.09922 0.09922,-0.09922 0.347266,-0.04961 0.09922,0.396875 0.198437,0.644922 0.09922,0.248047 0.198438,0.446485 0.148828,0.198437 0.248047,0.446484 0.148828,0.248047 0.248047,0.595312 -0.248047,0.595313 -0.446485,1.289844 -0.198437,0.644922 -0.79375,0.892969 0,0.396875 0.297657,0.446484 0.297656,0 0.347265,0.347266 0.04961,0.446484 -0.148828,0.74414 1.389063,2.331641 2.530078,4.911329 1.141016,2.530078 2.579688,4.861718 -0.09922,0.694531 0.04961,1.389063 0.198438,0.644922 0.446484,1.289843 0.297657,0.644922 0.545704,1.289844 0.248046,0.644922 0.347265,1.289844 0.09922,0.843359 0,1.835547 -0.09922,0.942578 -0.396875,1.835547 -0.297656,0.892968 -0.79375,1.686718 -0.496094,0.744141 -1.141015,1.141016 -0.79375,0.992187 -1.984375,1.637109 -1.190625,0.595313 -2.182813,1.438672 -0.694531,0.396875 -1.488281,0.595313 -0.79375,0.148828 -1.637109,0.347265 -0.644922,0.396875 -1.537891,0.79375 -0.892969,0.347266 -1.835547,0.644922 -0.942578,0.297656 -1.885156,0.496094 -0.942578,0.148828 -1.686719,0.04961 -1.785937,0.644922 -3.472656,0.892969 -1.686719,0.248047 -3.96875,-0.248047 z m 0.644922,-18.057812 q -0.496094,1.141015 -1.190625,2.083594 -0.644922,0.892968 -1.289844,1.835546 -0.644922,0.942579 -1.141015,2.033985 -0.446485,1.041797 -0.496094,2.480468 0.992187,0.84336 2.33164,1.041797 1.389063,0.148828 2.827735,0.04961 1.438672,-0.148828 2.877343,-0.396875 1.438672,-0.248047 2.579688,-0.248047 0,-0.446485 0.396875,-0.446485 2.083594,-0.198437 3.869531,-1.141015 1.785938,-0.992188 3.720703,-1.984375 0.248047,-0.595313 0.644922,-1.041797 0.396875,-0.446484 0.446484,-1.289844 -0.248046,-0.446484 -0.347265,-0.74414 -0.04961,-0.297657 -0.04961,-0.892969 -1.289843,-1.785938 -2.232421,-3.869531 -0.942579,-2.133203 -2.182813,-4.01836 -0.09922,0.248047 -0.396875,0.496094 -0.297656,0.248047 -0.644922,-0.09922 -0.148828,0.496094 -0.446484,0.694532 -0.297656,0.148828 -0.694531,0.148828 -0.347266,0 -0.744141,-0.148828 -0.347266,-0.148828 -0.644922,-0.396875 -1.736328,1.389062 -3.472656,2.678906 -1.686719,1.289844 -3.075781,3.026172 -0.248047,0.148828 -0.297657,0.09922 -0.04961,-0.04961 -0.347265,0.04961 z m 26.590627,13.592968 q -0.248047,0.04961 -0.446485,-0.347265 -0.198437,-0.446485 -0.446484,-0.84336 h 0.545703 q -0.347266,-1.091406 -0.198438,-1.984375 0.198438,-0.942578 0.446485,-1.785937 0.248047,-0.892969 0.396875,-1.686719 0.198437,-0.843359 -0.148828,-1.736328 0.248047,0.148828 0.347265,-0.09922 0.148828,-0.297656 0.198438,-0.694531 0.09922,-0.446484 0.04961,-0.892969 0,-0.496093 -0.04961,-0.79375 0.644922,-1.53789 0.992187,-3.175 0.396875,-1.637109 0.694532,-3.224609 0.297656,-1.637109 0.644921,-3.12539 0.396875,-1.537891 0.992188,-2.877344 0.694533,-0.09922 1.438673,0.198437 0.79375,0.248047 1.0418,0.644922 1.53789,-1.190625 2.72851,-2.877343 1.19063,-1.686719 2.38125,-3.274219 1.24024,-1.63711 2.77813,-2.877344 1.53789,-1.240234 3.81992,-1.488281 1.19062,0.843359 2.6789,1.835547 1.48829,0.942578 2.43086,2.38125 0.39688,0.248047 0.74414,0.545703 0.39688,0.248047 0.79375,0.496094 v 0.74414 q 0.69454,0.644922 1.14102,1.537891 0.49609,0.843359 0.84336,1.835547 0.39687,0.942578 0.74414,1.934765 0.34727,0.992188 0.79375,1.835547 -0.0992,0.297656 -0.0992,0.545703 0.0496,0.198438 0.0992,0.446485 0.0992,0.198437 0.14883,0.496093 0.0496,0.248047 0.0496,0.644922 -0.19844,2.629297 -1.73633,4.266406 -1.48828,1.5875 -3.67109,2.629297 -2.13321,0.992188 -4.56407,1.736328 -2.43086,0.694532 -4.41523,1.537891 0,0.198437 0.19844,0.198437 0.24804,0 0.14882,0.297657 1.48829,0.892968 2.28204,1.438671 0.84335,0.545704 1.53789,0.942579 0.74414,0.347265 1.5875,0.595312 0.89296,0.248047 2.43086,0.595313 1.53789,0.347265 2.38125,0.595312 0.89296,0.198438 1.5875,0.347266 0.69453,0.09922 1.48828,0.198437 0.79375,0.09922 2.1332,0.248047 0.5457,0.545703 0.89297,1.289844 0.34726,0.74414 0.49609,1.488281 0.14883,0.744141 0.0496,1.438672 -0.0496,0.644922 -0.39687,1.041797 0.0496,0.198437 0.24804,0.198437 0.24805,-0.04961 0.4961,0 -0.34727,0.248047 -0.59532,0.595313 -0.24804,0.347265 -0.49609,0.694531 -0.24805,0.347266 -0.59531,0.644922 -0.29766,0.297656 -0.79375,0.347265 -1.78594,0.694532 -4.56406,0.04961 -2.77813,-0.644922 -7.09414,-2.282031 -2.13321,-0.79375 -3.47266,-1.438672 -1.33945,-0.644922 -2.33164,-1.240235 -0.99219,-0.644921 -1.83555,-1.339453 -0.84336,-0.74414 -1.93476,-1.736328 -0.14883,0.04961 -0.19844,0.198438 0,0.148828 -0.14883,0.198437 -0.24805,1.984375 -0.79375,3.224609 -0.49609,1.240235 -1.48828,2.530079 -0.79375,-0.148829 -1.091407,0.148828 -0.248047,0.297656 -0.644922,0.545703 -0.496093,0.09922 -0.74414,-0.04961 -0.248047,-0.09922 -0.446485,-0.248046 -0.198437,-0.148829 -0.446484,-0.297657 -0.248047,-0.148828 -0.79375,-0.09922 -0.148828,-0.446485 -0.297656,-0.84336 -0.148828,-0.446484 -0.79375,-0.396875 0.148828,-0.446484 0.09922,-0.74414 -0.04961,-0.347266 -0.148828,-0.595313 -0.09922,-0.297656 -0.198437,-0.595312 -0.04961,-0.297657 0.09922,-0.694532 z M 112.18986,28.289885 q -0.64492,0.942578 -1.43867,1.736328 -0.79375,0.744141 -1.5875,1.5875 -0.74414,0.79375 -1.33946,1.785938 -0.59531,0.942578 -0.84336,2.282031 2.0836,-0.248047 4.36563,-1.141015 2.28203,-0.942579 4.31601,-1.785938 -0.24804,-1.835547 -1.28984,-2.926953 -1.0418,-1.141016 -2.18281,-1.537891 z m 19.74452,27.483594 q -1.43867,-0.347266 -2.23242,-1.141016 -0.74414,-0.843359 -1.14101,-1.934766 -0.34727,-1.141015 -0.4961,-2.480468 -0.0992,-1.339453 -0.24804,-2.778125 0.19843,-0.644922 0.49609,-1.091406 0.34727,-0.446485 0.29766,-1.240235 0.5457,-1.5875 0.99218,-3.075781 0.44649,-1.488281 0.59532,-3.075781 0.29765,-0.446485 0.59531,-0.595313 0.39687,-2.827734 0.0992,-5.804296 -0.29766,-2.976563 -0.99219,-5.506641 0.0496,-0.545703 0.14883,-0.79375 0.0992,-0.297656 0,-0.496094 -0.0992,-0.446484 0.29765,-0.446484 0.39688,0 0.79375,0 0,-0.892969 -0.34726,-1.736328 -0.29766,-0.892969 -0.59531,-2.033985 0.39687,-0.892968 0.5457,-1.736328 0.14883,-0.843359 0.5457,-1.53789 1.5875,0.496093 3.12539,1.141015 1.53789,0.644922 3.02617,1.289844 1.48829,0.595313 2.92696,1.190625 1.43867,0.545703 2.82773,0.892969 2.1332,1.53789 4.36563,3.075781 2.28203,1.488281 4.11757,3.323828 1.88516,1.785938 3.1254,4.117578 1.24023,2.331641 1.43867,5.506641 -0.0992,0.297656 -0.14883,0.496093 -0.0496,0.198438 -0.0992,0.396875 -0.0496,0.198438 -0.0496,0.446485 0,0.248047 0,0.694531 -1.78594,3.125391 -4.51445,5.258594 -2.72852,2.133203 -5.95313,3.770312 -3.22461,1.63711 -6.74687,3.026172 -3.47266,1.339453 -6.79649,2.877344 z m 4.86172,-28.128516 q -0.44648,0 -0.64492,0.198438 0.59531,2.232422 0.89297,4.216797 0.29766,1.984375 0.29766,3.96875 0.0496,1.984375 -0.19844,4.067968 -0.24805,2.083594 -0.69453,4.514453 0.64492,-0.04961 1.14101,-0.248046 0.4961,-0.198438 0.99219,-0.446485 0.5457,-0.248047 1.09141,-0.446484 0.59531,-0.198438 1.33945,-0.248047 0.19844,-0.396875 0.49609,-0.595312 0.34727,-0.248047 0.59532,-0.496094 1.24023,-0.496094 2.48046,-1.041797 1.24024,-0.545703 2.28204,-1.240234 1.04179,-0.694532 1.88515,-1.5875 0.84336,-0.892969 1.38906,-2.133204 -0.39687,-0.74414 -0.99218,-1.240234 -0.54571,-0.545703 -1.19063,-1.041797 -0.59531,-0.545703 -1.19062,-1.091406 -0.54571,-0.595312 -0.89297,-1.339453 -0.79375,-0.09922 -1.38906,-0.396875 -0.59532,-0.347266 -1.14102,-0.644922 -0.5457,-0.347266 -1.19062,-0.644922 -0.59532,-0.297656 -1.43868,-0.347265 -1.28984,-0.694532 -2.33164,-0.942579 -1.04179,-0.297656 -1.5875,-0.79375 z m 51.49454,-5.754687 q 0.29766,0.396875 0.59531,0.992188 0.29766,0.595312 0.0496,1.091406 0.89297,0.892969 1.38906,2.182812 0.54571,1.289844 -0.0992,2.827735 -1.14102,0.396875 -2.03399,0.644921 -0.84336,0.198438 -1.83555,0.496094 -1.88515,0.09922 -2.38125,0.148828 -0.44648,0.04961 -0.69453,0.09922 -0.24804,0.04961 -0.79375,0.198438 -0.49609,0.09922 -2.23242,0.347265 0,-0.198437 -0.0496,-0.248047 0,-0.04961 -0.0992,0 -0.0496,0.04961 -0.14883,0.09922 -0.0496,0.04961 -0.19843,0 -0.99219,0.347266 -1.98438,0.545703 -0.99219,0.148828 -1.98437,0.297656 -0.99219,0.148829 -1.98438,0.396875 -0.99219,0.198438 -2.03398,0.694532 0.0992,0.248047 0.29765,0.396875 0.19844,0.09922 0.39688,0.248047 0.24805,0.09922 0.44648,0.248046 0.19844,0.148829 0.29766,0.396875 1.38906,0.347266 2.28203,1.141016 0.94258,0.744141 1.68672,1.736328 0.74414,0.942578 1.43867,1.934766 0.69453,0.992187 1.63711,1.785937 0,0.297656 0.14883,0.446485 0.14883,0.148828 0.0496,0.545703 0.89297,1.141015 1.38906,2.728515 0.49609,1.5875 0.19844,3.671094 -0.64492,1.5875 -1.53789,2.728516 -0.89297,1.091406 -2.33164,2.282031 -1.14102,0.496093 -2.23242,0.79375 -1.09141,0.248047 -1.93477,0.79375 -0.39688,-0.248047 -0.74414,-0.198438 -0.29766,0 -0.5457,-0.09922 -1.14102,0.496094 -2.43086,0.694532 -1.28985,0.148828 -2.72852,-0.545703 -1.0418,0.04961 -2.1332,-0.04961 -1.0418,-0.148828 -1.93477,-0.496094 -0.89297,-0.347265 -1.53789,-0.942578 -0.59531,-0.644922 -0.79375,-1.5875 -1.14101,-0.942578 -1.48828,-2.33164 -0.34726,-1.438672 0.34727,-2.778125 0.29765,-0.09922 0.44648,-0.148828 0.19844,-0.09922 0.49609,-0.347266 2.6293,0.248047 5.35782,0.446484 2.77812,0.148829 5.90351,-0.446484 0.0992,-0.396875 0.34727,-0.545703 0.29765,-0.198438 0.64492,-0.347266 0.34727,-0.148828 0.64492,-0.297656 0.29766,-0.148828 0.44649,-0.446484 0,-0.297657 -0.14883,-0.396875 -0.14883,-0.148828 -0.29766,-0.248047 -0.14883,-0.148828 -0.29765,-0.297656 -0.0992,-0.148828 -0.0496,-0.496094 -0.64493,0 -1.53789,-0.446484 -0.84336,-0.446485 -1.33946,-0.992188 -2.18281,-0.396875 -4.36562,-1.488281 -2.13321,-1.091406 -4.16719,-2.033985 -0.34727,-0.595312 -0.79375,-1.091406 -0.39687,-0.545703 -0.79375,-1.091406 -0.39687,-0.595312 -0.69453,-1.190625 -0.24805,-0.595312 -0.29766,-1.289844 0.0496,-0.79375 0.0992,-1.488281 0.0496,-0.744141 0.0992,-1.438672 0.0496,-0.74414 0.14883,-1.488281 0.0992,-0.79375 0.29765,-1.686719 2.13321,-2.926953 5.30821,-4.911328 3.22461,-2.033984 6.59804,-3.323828 0.54571,0.545703 1.09141,1.190625 0.5457,0.595313 1.14102,1.141016 0.59531,0.545703 1.24023,0.942578 0.69453,0.396875 1.53789,0.446484 0.5457,-0.148828 0.84336,-0.198437 0.29766,-0.04961 0.5457,-0.04961 0.24805,0 0.64493,0 0.39687,0 1.14101,-0.09922 0.74414,-0.09922 1.43867,-0.09922 0.69453,0 1.28985,-0.04961 1.24023,-0.09922 1.78593,-0.198437 0.59532,-0.09922 0.79375,-0.148828 0.19844,-0.04961 0.19844,-0.04961 0,-0.04961 0.14883,0 0.19844,0 0.69453,0.09922 0.49609,0.09922 1.68672,0.248047 z"
         id="text2"
         style="font-size:50.8px;line-height:1.25;font-family:'Permanent Marker';-inkscape-font-specification:'Permanent Marker';font-variant-ligatures:none;text-align:center;text-anchor:middle;fill:url(#linearGradient3);stroke:#000000;stroke-width:0.529167"
         transform="rotate(-3.2450016,-102.53254,149.33411)"
         aria-label="WORD5" />
      <text
         xml:space="preserve"
         style="font-size:50.8px;line-height:1.25;font-family:'Permanent Marker';-inkscape-font-specification:'Permanent Marker';font-variant-ligatures:none;text-align:center;text-anchor:middle;stroke-width:0.264583"
         x="5.5330529"
         y="4.9975958"
         id="text23"><tspan
           sodipodi:role="line"
           id="tspan23"
           style="stroke-width:0.264583"
           x="5.5330529"
           y="4.9975958"></tspan></text>
    </g>
  </g>
</svg>
