<?xml version="1.0" encoding="UTF-8" standalone="no"?>
<!-- Created with Inkscape (http://www.inkscape.org/) -->

<svg
   width="150"
   height="150"
   viewBox="0 0 39.687499 39.687499"
   version="1.1"
   id="svg1"
   inkscape:export-filename="1024.png"
   inkscape:export-xdpi="655.35999"
   inkscape:export-ydpi="655.35999"
   sodipodi:docname="icon.svg"
   inkscape:version="1.4 (e7c3feb1, 2024-10-09)"
   xmlns:inkscape="http://www.inkscape.org/namespaces/inkscape"
   xmlns:sodipodi="http://sodipodi.sourceforge.net/DTD/sodipodi-0.dtd"
   xmlns:xlink="http://www.w3.org/1999/xlink"
   xmlns="http://www.w3.org/2000/svg"
   xmlns:svg="http://www.w3.org/2000/svg">
  <sodipodi:namedview
     id="namedview1"
     pagecolor="#ffffff"
     bordercolor="#666666"
     borderopacity="1.0"
     inkscape:showpageshadow="2"
     inkscape:pageopacity="0.0"
     inkscape:pagecheckerboard="0"
     inkscape:deskcolor="#d1d1d1"
     inkscape:document-units="mm"
     inkscape:zoom="1"
     inkscape:cx="171.5"
     inkscape:cy="103"
     inkscape:window-width="1104"
     inkscape:window-height="653"
     inkscape:window-x="0"
     inkscape:window-y="25"
     inkscape:window-maximized="0"
     inkscape:current-layer="layer1" />
  <defs
     id="defs1">
    <linearGradient
       id="linearGradient14"
       inkscape:label="2-2">
      <stop
         style="stop-color:#f3f3f3;stop-opacity:0.99999988;"
         offset="0"
         id="stop15" />
      <stop
         style="stop-color:#ffff80;stop-opacity:0.99999988;"
         offset="0.16"
         id="stop11" />
      <stop
         style="stop-color:#ffffff;stop-opacity:1;"
         offset="0.31999999"
         id="stop12" />
      <stop
         style="stop-color:#ffffff;stop-opacity:0.99999988;"
         offset="0.5"
         id="stop14" />
      <stop
         style="stop-color:#ffff80;stop-opacity:0.99999988;"
         offset="0.83999997"
         id="stop13" />
      <stop
         style="stop-color:#f3f3f4;stop-opacity:0.99999988;"
         offset="1"
         id="stop16" />
    </linearGradient>
    <linearGradient
       id="linearGradient2">
      <stop
         style="stop-color:#000000;stop-opacity:1;"
         offset="0"
         id="stop4" />
      <stop
         style="stop-color:#000000;stop-opacity:0;"
         offset="1"
         id="stop5" />
    </linearGradient>
    <linearGradient
       id="linearGradient2-1"
       inkscape:label="2-2">
      <stop
         style="stop-color:#ffffff;stop-opacity:1;"
         offset="0"
         id="stop2" />
      <stop
         style="stop-color:#ffff03;stop-opacity:0.49803922;"
         offset="0.27083334"
         id="stop6" />
      <stop
         style="stop-color:#fffff8;stop-opacity:0.32941177;"
         offset="0.49702382"
         id="stop8" />
      <stop
         style="stop-color:#ffffc9;stop-opacity:0.17647059;"
         offset="0.74404764"
         id="stop7" />
      <stop
         style="stop-color:#ffffff;stop-opacity:1;"
         offset="1"
         id="stop3" />
    </linearGradient>
    <linearGradient
       inkscape:collect="always"
       xlink:href="#linearGradient14"
       id="linearGradient3"
       x1="26.472984"
       y1="45.679108"
       x2="26.472984"
       y2="85.330231"
       gradientUnits="userSpaceOnUse"
       spreadMethod="pad"
       gradientTransform="translate(63.349495,-28.303475)" />
    <filter
       style="color-interpolation-filters:sRGB"
       inkscape:label="Drop Shadow"
       id="filter21"
       x="-0.0014406474"
       y="-0.0066728494"
       width="1.0083263"
       height="1.0385659">
      <feFlood
         result="flood"
         in="SourceGraphic"
         flood-opacity="0.498039"
         flood-color="rgb(0,0,0)"
         id="feFlood20" />
      <feGaussianBlur
         result="blur"
         in="SourceGraphic"
         stdDeviation="0.000000"
         id="feGaussianBlur20" />
      <feOffset
         result="offset"
         in="blur"
         dx="1.000000"
         dy="1.000000"
         id="feOffset20" />
      <feComposite
         result="comp1"
         operator="in"
         in="flood"
         in2="offset"
         id="feComposite20" />
      <feComposite
         result="comp2"
         operator="over"
         in="SourceGraphic"
         in2="comp1"
         id="feComposite21" />
    </filter>
  </defs>
  <g
     inkscape:label="Layer 1"
     inkscape:groupmode="layer"
     id="layer1">
    <g
       id="g26"
       transform="translate(-73.005073,-6.3689284)">
      <path
         d="m 105.46833,16.96345 q 0.29766,0.396875 0.59532,0.992187 0.29765,0.595313 0.0496,1.091406 0.89297,0.892969 1.38906,2.182813 0.5457,1.289844 -0.0992,2.827734 -1.14102,0.396875 -2.03398,0.644922 -0.84336,0.198437 -1.83555,0.496094 -1.88516,0.09922 -2.38125,0.148828 -0.44649,0.04961 -0.69453,0.09922 -0.24805,0.04961 -0.793752,0.198437 -0.496094,0.09922 -2.232422,0.347266 0,-0.198438 -0.04961,-0.248047 0,-0.04961 -0.09922,0 -0.04961,0.04961 -0.148828,0.09922 -0.04961,0.04961 -0.198438,0 -0.992187,0.347265 -1.984375,0.545703 -0.992187,0.148828 -1.984375,0.297656 -0.992187,0.148828 -1.984375,0.396875 -0.992187,0.198437 -2.033984,0.694531 0.09922,0.248047 0.297656,0.396875 0.198438,0.09922 0.396875,0.248047 0.248047,0.09922 0.446485,0.248047 0.198437,0.148828 0.297656,0.396875 1.389062,0.347266 2.282031,1.141016 0.942578,0.74414 1.686719,1.736328 0.74414,0.942578 1.438672,1.934765 0.694531,0.992188 1.637109,1.785938 0,0.297656 0.148828,0.446484 0.148828,0.148828 0.04961,0.545703 0.892968,1.141016 1.389062,2.728516 0.496094,1.5875 0.198438,3.671093 -0.644922,1.5875 -1.537891,2.728516 -0.892969,1.091406 -2.331641,2.282031 -1.141015,0.496094 -2.232421,0.79375 -1.091407,0.248047 -1.934766,0.79375 -0.396875,-0.248047 -0.744141,-0.198437 -0.297656,0 -0.545703,-0.09922 -1.141015,0.496094 -2.430859,0.694531 -1.289844,0.148828 -2.728516,-0.545703 -1.041797,0.04961 -2.133203,-0.04961 -1.041797,-0.148828 -1.934765,-0.496094 -0.892969,-0.347266 -1.537891,-0.942578 -0.595313,-0.644922 -0.79375,-1.5875 -1.141016,-0.942578 -1.488281,-2.331641 -0.347266,-1.438672 0.347265,-2.778125 0.297657,-0.09922 0.446485,-0.148828 0.198437,-0.09922 0.496093,-0.347265 2.629297,0.248046 5.357813,0.446484 2.778125,0.148828 5.903515,-0.446484 0.09922,-0.396875 0.347266,-0.545704 0.297656,-0.198437 0.644922,-0.347265 0.347266,-0.148828 0.644922,-0.297656 0.297656,-0.148828 0.446484,-0.446485 0,-0.297656 -0.148828,-0.396875 -0.148828,-0.148828 -0.297656,-0.248047 -0.148828,-0.148828 -0.297656,-0.297656 -0.09922,-0.148828 -0.04961,-0.496094 -0.644922,0 -1.53789,-0.446484 -0.84336,-0.446484 -1.339454,-0.992187 -2.182812,-0.396875 -4.365624,-1.488282 -2.133204,-1.091406 -4.167188,-2.033984 -0.347266,-0.595313 -0.79375,-1.091406 -0.396875,-0.545703 -0.79375,-1.091406 -0.396875,-0.595313 -0.694531,-1.190625 -0.248047,-0.595313 -0.297656,-1.289844 0.04961,-0.79375 0.09922,-1.488281 0.04961,-0.744141 0.09922,-1.438672 0.04961,-0.744141 0.148828,-1.488282 0.09922,-0.793749 0.297657,-1.686718 2.133203,-2.926953 5.308203,-4.911328 3.224609,-2.033985 6.598046,-3.323828 0.545703,0.545703 1.091407,1.190625 0.545703,0.595312 1.141015,1.141015 0.595313,0.545703 1.240235,0.942578 0.694531,0.396875 1.53789,0.446485 0.545703,-0.148828 0.843359,-0.198438 0.297657,-0.04961 0.545704,-0.04961 0.248046,0 0.644921,0 0.396875,0 1.141016,-0.09922 0.744141,-0.09922 1.438672,-0.09922 0.694531,0 1.289841,-0.04961 1.24024,-0.09922 1.78594,-0.198438 0.59531,-0.09922 0.79375,-0.148828 0.19844,-0.04961 0.19844,-0.04961 0,-0.04961 0.14882,0 0.19844,0 0.69454,0.09922 0.49609,0.09922 1.68671,0.248047 z"
         id="text26"
         style="font-size:50.8px;line-height:1.25;font-family:'Permanent Marker';-inkscape-font-specification:'Permanent Marker';font-variant-ligatures:none;text-align:center;text-anchor:middle;fill-opacity:0.5;stroke-width:0.529167"
         transform="rotate(-3.2450016)"
         aria-label="5" />
      <path
         d="m 112.76037,21.890276 q 0.29765,0.396875 0.59531,0.992188 0.29765,0.595312 0.0496,1.091406 0.89297,0.892969 1.38906,2.182812 0.5457,1.289844 -0.0992,2.827735 -1.14101,0.396875 -2.03398,0.644921 -0.84336,0.198438 -1.83555,0.496094 -1.88516,0.09922 -2.38125,0.148828 -0.44648,0.04961 -0.69453,0.09922 -0.24805,0.04961 -0.79375,0.198438 -0.4961,0.09922 -2.23242,0.347265 0,-0.198437 -0.0496,-0.248047 0,-0.04961 -0.0992,0 -0.0496,0.04961 -0.14883,0.09922 -0.0496,0.04961 -0.19844,0 -0.99218,0.347266 -1.98437,0.545703 -0.99219,0.148828 -1.98438,0.297656 -0.992185,0.148829 -1.984372,0.396875 -0.992188,0.198438 -2.033985,0.694532 0.09922,0.248047 0.297657,0.396875 0.198437,0.09922 0.396875,0.248047 0.248047,0.09922 0.446484,0.248046 0.198438,0.148829 0.297656,0.396875 1.389063,0.347266 2.282031,1.141016 0.942574,0.744141 1.686724,1.736328 0.74414,0.942578 1.43867,1.934766 0.69453,0.992187 1.63711,1.785937 0,0.297656 0.14882,0.446485 0.14883,0.148828 0.0496,0.545703 0.89297,1.141015 1.38907,2.728515 0.49609,1.5875 0.19843,3.671094 -0.64492,1.5875 -1.53789,2.728516 -0.89297,1.091406 -2.33164,2.282031 -1.14101,0.496093 -2.23242,0.79375 -1.091405,0.248047 -1.934765,0.79375 -0.396875,-0.248047 -0.74414,-0.198438 -0.297657,0 -0.545703,-0.09922 -1.141016,0.496094 -2.43086,0.694532 -1.289844,0.148828 -2.728515,-0.545703 -1.041797,0.04961 -2.133203,-0.04961 -1.041797,-0.148828 -1.934766,-0.496094 -0.892969,-0.347265 -1.537891,-0.942578 -0.595312,-0.644922 -0.79375,-1.5875 -1.141015,-0.942578 -1.488281,-2.33164 -0.347266,-1.438672 0.347266,-2.778125 0.297656,-0.09922 0.446484,-0.148828 0.198438,-0.09922 0.496094,-0.347266 2.629297,0.248047 5.357812,0.446484 2.778125,0.148829 5.903516,-0.446484 0.09922,-0.396875 0.347265,-0.545703 0.297657,-0.198438 0.644922,-0.347266 0.347266,-0.148828 0.644922,-0.297656 0.297656,-0.148828 0.446485,-0.446484 0,-0.297657 -0.148829,-0.396875 -0.148828,-0.148828 -0.297656,-0.248047 -0.148828,-0.148828 -0.297656,-0.297656 -0.09922,-0.148828 -0.04961,-0.496094 -0.644922,0 -1.537891,-0.446484 -0.843359,-0.446485 -1.339453,-0.992188 -2.182813,-0.396875 -4.365625,-1.488281 -2.133203,-1.091406 -4.167188,-2.033985 -0.347265,-0.595312 -0.79375,-1.091406 -0.396875,-0.545703 -0.79375,-1.091406 -0.396875,-0.595312 -0.694531,-1.190625 -0.248047,-0.595312 -0.297656,-1.289844 0.04961,-0.79375 0.09922,-1.488281 0.04961,-0.744141 0.09922,-1.438672 0.04961,-0.74414 0.148829,-1.488281 0.09922,-0.79375 0.297656,-1.686719 2.133203,-2.926953 5.308203,-4.911328 3.224609,-2.033984 6.598047,-3.323828 0.545703,0.545703 1.091406,1.190625 0.545703,0.595313 1.141016,1.141016 0.595312,0.545703 1.240236,0.942578 0.69453,0.396875 1.53789,0.446484 0.5457,-0.148828 0.84336,-0.198437 0.29765,-0.04961 0.5457,-0.04961 0.24805,0 0.64492,0 0.39688,0 1.14102,-0.09922 0.74414,-0.09922 1.43867,-0.09922 0.69453,0 1.28984,-0.04961 1.24024,-0.09922 1.78594,-0.198437 0.59531,-0.09922 0.79375,-0.148828 0.19844,-0.04961 0.19844,-0.04961 0,-0.04961 0.14883,0 0.19843,0 0.69453,0.09922 0.49609,0.09922 1.68672,0.248047 z"
         id="text2"
         style="font-size:50.8px;line-height:1.25;font-family:'Permanent Marker';-inkscape-font-specification:'Permanent Marker';font-variant-ligatures:none;text-align:center;text-anchor:middle;fill:url(#linearGradient3);stroke:#000000;stroke-width:0.529167"
         transform="rotate(-3.2450016,-102.53254,149.33411)"
         aria-label="5" />
      <text
         xml:space="preserve"
         style="font-size:50.8px;line-height:1.25;font-family:'Permanent Marker';-inkscape-font-specification:'Permanent Marker';font-variant-ligatures:none;text-align:center;text-anchor:middle;stroke-width:0.264583"
         x="5.5330529"
         y="4.9975958"
         id="text23"><tspan
           sodipodi:role="line"
           id="tspan23"
           style="stroke-width:0.264583"
           x="5.5330529"
           y="4.9975958"></tspan></text>
    </g>
  </g>
</svg>
